<svg xmlns="http://www.w3.org/2000/svg" xmlns:xlink="http://www.w3.org/1999/xlink" id="Layer_1" x="0" y="0" version="1.1" viewBox="0 0 30 30" xml:space="preserve" style="enable-background:new 0 0 30 30"><path d="M29.6,14.3c0,0.7-0.2,1.2-0.7,1.7L16.7,28.2c-0.5,0.5-1.1,0.7-1.7,0.7c-0.7,0-1.2-0.2-1.7-0.7L1.1,16	c-0.5-0.5-0.7-1-0.7-1.7c0-0.7,0.2-1.2,0.7-1.7l1.4-1.4c0.5-0.5,1.1-0.7,1.7-0.7c0.7,0,1.2,0.2,1.7,0.7l5.5,5.5V3.5	c0-0.7,0.2-1.2,0.7-1.7c0.5-0.5,1-0.7,1.7-0.7h2.4c0.7,0,1.2,0.2,1.7,0.7c0.5,0.5,0.7,1,0.7,1.7v13.2l5.5-5.5c0.5-0.5,1-0.7,1.7-0.7	c0.7,0,1.2,0.2,1.7,0.7l1.4,1.4C29.4,13.1,29.6,13.6,29.6,14.3z"/></svg>